<?xml version="1.0" encoding="utf-8"?>
<!-- Generator: Adobe Illustrator 21.0.0, SVG Export Plug-In . SVG Version: 6.00 Build 0)  -->
<svg version="1.1" id="Layer_1" xmlns="http://www.w3.org/2000/svg" xmlns:xlink="http://www.w3.org/1999/xlink" x="0px" y="0px"
	 viewBox="0 0 473.4 90.7" style="enable-background:new 0 0 473.4 90.7;" xml:space="preserve">
<style type="text/css">
	.st0{clip-path:url(#SVGID_1_);}
	.st1{clip-path:url(#SVGID_2_);}
	.st2{clip-path:url(#SVGID_3_);}
	.st3{clip-path:url(#SVGID_4_);}
	.st4{clip-path:url(#SVGID_5_);}
	.st5{clip-path:url(#SVGID_6_);}
	.st6{clip-path:url(#SVGID_7_);}
	.st7{clip-path:url(#SVGID_8_);}
	.st8{clip-path:url(#SVGID_9_);}
	.st9{clip-path:url(#SVGID_10_);}
	.st10{clip-path:url(#SVGID_11_);}
	.st11{clip-path:url(#SVGID_12_);}
	.st12{clip-path:url(#SVGID_13_);}
	.st13{clip-path:url(#SVGID_14_);}
	.st14{clip-path:url(#SVGID_15_);}
	.st15{clip-path:url(#SVGID_16_);}
	.st16{clip-path:url(#SVGID_17_);}
	.st17{clip-path:url(#SVGID_18_);}
	.st18{clip-path:url(#SVGID_19_);}
	.st19{clip-path:url(#SVGID_20_);}
	.st20{clip-path:url(#SVGID_21_);}
	.st21{clip-path:url(#SVGID_22_);}
	.st22{clip-path:url(#SVGID_23_);}
	.st23{clip-path:url(#SVGID_24_);}
	.st24{clip-path:url(#SVGID_25_);}
</style>
<g>
	<defs>
		<polygon id="SVGID_125_" points="112.6,68.3 112.6,88 125.1,88 125.1,85.3 118.1,85.3 118.1,68.3 		"/>
	</defs>
	<use xlink:href="#SVGID_125_"  style="overflow:visible;"/>
	<clipPath id="SVGID_1_">
		<use xlink:href="#SVGID_125_"  style="overflow:visible;"/>
	</clipPath>
	<rect x="112.6" y="68.3" class="st0" width="12.5" height="19.8"/>
</g>
<g>
	<defs>
		<path id="SVGID_124_" d="M139.7,68.3v12.9c0,1.3-0.3,2.3-0.9,3.2c-0.6,0.9-1.5,1.3-2.5,1.3c-1.1,0-2.1-0.4-2.9-1.3
			c-0.8-0.8-1.2-1.8-1.2-3V68.3h-5.4v13.4c0,1.8,0.8,3.3,2.4,4.7c1.6,1.3,3.5,2,5.6,2c2.4,0,4.4-0.8,6-2.3c1.2-1.2,1.8-2.3,1.8-3.3
			V68.3H139.7z"/>
	</defs>
	<use xlink:href="#SVGID_124_"  style="overflow:visible;"/>
	<clipPath id="SVGID_2_">
		<use xlink:href="#SVGID_124_"  style="overflow:visible;"/>
	</clipPath>
	<rect x="126.7" y="68.3" class="st1" width="15.8" height="20"/>
</g>
<g>
	<defs>
		<polygon id="SVGID_123_" points="153,74 149.7,68.3 143.9,68.3 149.7,79 144.1,88 146.9,88 151.1,81.4 155,88 160.7,88 
			154.2,76.3 159.3,68.3 156.5,68.2 		"/>
	</defs>
	<use xlink:href="#SVGID_123_"  style="overflow:visible;"/>
	<clipPath id="SVGID_3_">
		<use xlink:href="#SVGID_123_"  style="overflow:visible;"/>
	</clipPath>
	<rect x="143.9" y="68.2" class="st2" width="16.8" height="19.8"/>
</g>
<g>
	<defs>
		<path id="SVGID_122_" d="M175.1,68.3v12.9c0,1.3-0.3,2.3-0.9,3.2c-0.6,0.9-1.5,1.3-2.5,1.3c-1.1,0-2.1-0.4-2.9-1.3
			c-0.8-0.8-1.2-1.8-1.2-3V68.3h-5.4v13.4c0,1.8,0.8,3.3,2.4,4.7c1.6,1.3,3.5,2,5.6,2c2.4,0,4.4-0.8,6-2.3c1.2-1.2,1.8-2.3,1.8-3.3
			V68.3H175.1z"/>
	</defs>
	<use xlink:href="#SVGID_122_"  style="overflow:visible;"/>
	<clipPath id="SVGID_4_">
		<use xlink:href="#SVGID_122_"  style="overflow:visible;"/>
	</clipPath>
	<rect x="162.1" y="68.3" class="st3" width="15.8" height="20"/>
</g>
<g>
	<defs>
		<path id="SVGID_121_" d="M189.9,68.2h-0.4h-9.2v19.9h5.9V70.5h1c1.4,0,2.5,0.3,3.4,0.8c1.1,0.7,1.6,1.7,1.6,3.1
			c0,1.2-0.5,2.2-1.4,2.9c-0.8,0.6-1.8,1-3,1c-0.4,0-0.8-0.1-1.2-0.1l5.1,10h6.2l-4.6-8.4c1.1-0.4,1.8-0.8,2.4-1.2
			c1.5-1.1,2.3-2.6,2.3-4.4c0-2.1-0.9-3.7-2.9-4.8c-1.4-0.8-3.1-1.2-4.9-1.2H189.9z"/>
	</defs>
	<use xlink:href="#SVGID_121_"  style="overflow:visible;"/>
	<clipPath id="SVGID_5_">
		<use xlink:href="#SVGID_121_"  style="overflow:visible;"/>
	</clipPath>
	<rect x="180.2" y="68.2" class="st4" width="17.8" height="19.9"/>
</g>
<g>
	<defs>
		<polygon id="SVGID_120_" points="209.2,75.3 204.9,68.2 198.7,68.2 204.8,78.7 204.8,88 210.6,88 210.6,77.8 216.4,68.2 
			213.3,68.2 		"/>
	</defs>
	<use xlink:href="#SVGID_120_"  style="overflow:visible;"/>
	<clipPath id="SVGID_6_">
		<use xlink:href="#SVGID_120_"  style="overflow:visible;"/>
	</clipPath>
	<rect x="198.7" y="68.2" class="st5" width="17.7" height="19.9"/>
</g>
<g>
	<defs>
		<polygon id="SVGID_119_" points="227.9,68.3 227.9,70.7 233.2,70.7 233.2,88.1 238.5,88 238.5,70.7 244.1,70.7 244.1,68.3 		"/>
	</defs>
	<use xlink:href="#SVGID_119_"  style="overflow:visible;"/>
	<clipPath id="SVGID_7_">
		<use xlink:href="#SVGID_119_"  style="overflow:visible;"/>
	</clipPath>
	<rect x="227.9" y="68.3" class="st6" width="16.2" height="19.9"/>
</g>
<g>
	<defs>
		<path id="SVGID_118_" d="M252.1,83.4c-0.7-1.5-1.1-3.3-1.1-5.5c0-2.1,0.3-3.8,1-5.1c0.8-1.7,2-2.5,3.6-2.5c1.6,0,2.8,0.8,3.6,2.4
			c0.7,1.4,1.1,3,1.1,5c0,2.3-0.3,4.2-0.9,5.6c-0.7,1.9-1.9,2.8-3.6,2.8C254.3,86.1,253,85.2,252.1,83.4z M248.2,71
			c-2,2-3,4.4-3,7.2c0,2.8,1.1,5.1,3.2,7c2.1,1.9,4.6,2.9,7.5,2.9c2.8,0,5.2-1,7.2-2.9c2-1.9,3-4.3,3-7.1c0-2.9-1-5.2-3.1-7.2
			c-2-1.9-4.6-2.9-7.7-2.9C252.6,68,250.2,69,248.2,71z"/>
	</defs>
	<use xlink:href="#SVGID_118_"  style="overflow:visible;"/>
	<clipPath id="SVGID_8_">
		<use xlink:href="#SVGID_118_"  style="overflow:visible;"/>
	</clipPath>
	<rect x="245.2" y="68" class="st7" width="20.9" height="20"/>
</g>
<g>
	<defs>
		<path id="SVGID_117_" d="M273.5,85.7v-6.5c0.4-0.1,0.9-0.2,1.3-0.2c1.1,0,2.2,0.3,3,1c0.9,0.7,1.3,1.5,1.3,2.5
			c0,1.1-0.4,1.9-1.2,2.6c-0.8,0.6-1.8,0.9-2.9,0.9C274.5,86,274,85.9,273.5,85.7z M273.6,76.7v-6.1c0.3-0.1,0.5-0.1,0.8-0.2
			c0.2,0,0.4,0,0.5,0c1,0,1.9,0.3,2.6,0.9c0.7,0.6,1.1,1.5,1.1,2.5c0,1-0.4,1.8-1.1,2.3c-0.6,0.5-1.4,0.8-2.4,0.8
			C274.6,76.9,274.1,76.8,273.6,76.7z M271.2,68.3H268v19.9h6.6c3.7,0,6.2-0.3,7.6-0.9c1.8-0.8,2.8-2.3,2.8-4.6c0-1-0.4-1.9-1.2-2.8
			c-0.9-0.9-2.1-1.5-3.5-1.7c1.1-0.2,2-0.7,2.8-1.6c0.8-0.9,1.2-1.9,1.2-3.1c0-2.2-0.8-3.6-2.4-4.4c-1.2-0.6-3.5-0.9-6.9-0.9H271.2z
			"/>
	</defs>
	<use xlink:href="#SVGID_117_"  style="overflow:visible;"/>
	<clipPath id="SVGID_9_">
		<use xlink:href="#SVGID_117_"  style="overflow:visible;"/>
	</clipPath>
	<rect x="268" y="68.3" class="st8" width="17" height="19.9"/>
</g>
<g>
	<defs>
		<path id="SVGID_116_" d="M293.8,72.8l2.6,6.9h-5.1L293.8,72.8z M292.7,68.3l-7.2,19.9l2.9,0l1.9-6h7l2,5.9h6.1l-7.2-19.9H292.7z"
			/>
	</defs>
	<use xlink:href="#SVGID_116_"  style="overflow:visible;"/>
	<clipPath id="SVGID_10_">
		<use xlink:href="#SVGID_116_"  style="overflow:visible;"/>
	</clipPath>
	<rect x="285.5" y="68.3" class="st9" width="19.9" height="19.9"/>
</g>
<g>
	<defs>
		<path id="SVGID_115_" d="M309.3,71.2c-2,2-2.9,4.5-2.9,7.3c0,2.8,1,5.1,3,7c2,1.9,4.5,2.9,7.3,2.9c3.8,0,6.7-1.7,8.6-5.1l-2-1.1
			c-0.7,1.1-1.4,1.9-2.1,2.5c-1.1,0.9-2.2,1.4-3.4,1.4c-0.2,0-0.4,0-0.6,0c-1.6-0.2-2.9-1.1-3.9-2.8c-0.8-1.5-1.3-3.2-1.3-5.3
			c0-2.1,0.4-3.8,1.3-5.3c0.9-1.6,2.2-2.4,3.7-2.4c1.5,0,2.6,0.4,3.5,1.1c0.5,0.4,1.2,1.4,2,2.7l2.5-1.5c-1.1-1.5-2.3-2.7-3.7-3.4
			c-1.4-0.7-3.1-1.1-5-1.1C313.6,68.2,311.2,69.2,309.3,71.2z"/>
	</defs>
	<use xlink:href="#SVGID_115_"  style="overflow:visible;"/>
	<clipPath id="SVGID_11_">
		<use xlink:href="#SVGID_115_"  style="overflow:visible;"/>
	</clipPath>
	<rect x="306.4" y="68.2" class="st10" width="18.9" height="20.2"/>
</g>
<g>
	<defs>
		<path id="SVGID_114_" d="M329.5,71.2c-2,2-2.9,4.5-2.9,7.3c0,2.8,1,5.1,3,7c2,1.9,4.5,2.9,7.3,2.9c3.8,0,6.7-1.7,8.6-5.1l-2-1.1
			c-0.7,1.1-1.4,1.9-2.1,2.5c-1.1,0.9-2.2,1.4-3.4,1.4c-0.2,0-0.4,0-0.6,0c-1.6-0.2-2.9-1.1-3.9-2.8c-0.8-1.5-1.3-3.2-1.3-5.3
			c0-2.1,0.4-3.8,1.3-5.3c0.9-1.6,2.2-2.4,3.7-2.4c1.5,0,2.6,0.4,3.5,1.1c0.5,0.4,1.2,1.4,2,2.7l2.5-1.5c-1.1-1.5-2.3-2.7-3.7-3.4
			c-1.4-0.7-3.1-1.1-5-1.1C333.8,68.2,331.4,69.2,329.5,71.2z"/>
	</defs>
	<use xlink:href="#SVGID_114_"  style="overflow:visible;"/>
	<clipPath id="SVGID_12_">
		<use xlink:href="#SVGID_114_"  style="overflow:visible;"/>
	</clipPath>
	<rect x="326.5" y="68.2" class="st11" width="18.9" height="20.2"/>
</g>
<g>
	<defs>
		<path id="SVGID_113_" d="M353.6,83.4c-0.7-1.5-1.1-3.3-1.1-5.5c0-2.1,0.3-3.8,1-5.1c0.8-1.7,2-2.5,3.6-2.5c1.6,0,2.8,0.8,3.6,2.4
			c0.7,1.4,1.1,3,1.1,5c0,2.3-0.3,4.2-0.9,5.6c-0.7,1.9-1.9,2.8-3.6,2.8C355.7,86.1,354.5,85.2,353.6,83.4z M349.7,71
			c-2,2-3,4.4-3,7.2c0,2.8,1.1,5.1,3.2,7c2.1,1.9,4.6,2.9,7.5,2.9c2.8,0,5.2-1,7.2-2.9c2-1.9,3-4.3,3-7.1c0-2.9-1-5.2-3.1-7.2
			c-2-1.9-4.6-2.9-7.7-2.9C354,68,351.6,69,349.7,71z"/>
	</defs>
	<use xlink:href="#SVGID_113_"  style="overflow:visible;"/>
	<clipPath id="SVGID_13_">
		<use xlink:href="#SVGID_113_"  style="overflow:visible;"/>
	</clipPath>
	<rect x="346.7" y="68" class="st12" width="20.9" height="20"/>
</g>
<g>
	<defs>
		<polygon id="SVGID_112_" points="48.8,2.7 48.8,8.6 61.5,8.6 61.5,50 74.2,49.7 74.2,8.6 87.4,8.6 87.4,2.7 		"/>
	</defs>
	<use xlink:href="#SVGID_112_"  style="overflow:visible;"/>
	<clipPath id="SVGID_14_">
		<use xlink:href="#SVGID_112_"  style="overflow:visible;"/>
	</clipPath>
	<rect x="48.8" y="2.7" class="st13" width="38.5" height="47.3"/>
</g>
<g>
	<defs>
		<path id="SVGID_111_" d="M91,16.5v33.2h11V20.1c2.4,0,4.2,0.3,5.4,0.8c1.7,0.8,2.7,2.2,3.2,4.3c0,0.2,0.1,0.5,0.1,0.9
			c0,1.8-0.9,3.4-2.6,5c-1.7,1.5-3.3,2.1-4.8,1.8l8.5,16.7h12.9l-11.4-14.6c1.8-0.7,3.1-1.3,4-1.8c2.7-1.8,4-4.2,4-7.1
			c0-3.6-1.6-6.3-4.9-7.9c-2.3-1.2-5.5-1.7-9.4-1.7H91z"/>
	</defs>
	<use xlink:href="#SVGID_111_"  style="overflow:visible;"/>
	<clipPath id="SVGID_15_">
		<use xlink:href="#SVGID_111_"  style="overflow:visible;"/>
	</clipPath>
	<rect x="91" y="16.5" class="st14" width="33.7" height="33.2"/>
</g>
<g>
	<defs>
		<path id="SVGID_110_" d="M148.5,17.3V38c0,1.8-0.3,3.3-0.8,4.5c-0.7,1.5-2,2.2-3.6,2.2c-2.6,0-4.4-0.7-5.2-2.1
			c-0.6-0.9-0.8-2.5-0.8-4.8V17.3h-10.6v19.2c0,3.3,0.9,6.3,2.8,8.9c2.5,3.5,6.1,5.2,10.9,5.2c3.5,0,6.6-1.2,9.2-3.5
			c2.6-2.3,4-5.2,4-8.6V17.3H148.5z"/>
	</defs>
	<use xlink:href="#SVGID_110_"  style="overflow:visible;"/>
	<clipPath id="SVGID_16_">
		<use xlink:href="#SVGID_110_"  style="overflow:visible;"/>
	</clipPath>
	<rect x="127.3" y="17.3" class="st15" width="26.9" height="33.3"/>
</g>
<g>
	<defs>
		<path id="SVGID_109_" d="M174.7,17.1h-6.6c-2,0-3.4,0.1-4.4,0.2c-1,0.1-1.8,0.4-2.5,0.9c-0.7,0.4-1.3,1.2-1.9,2.4
			c-0.1,0.4-0.3,0.9-0.5,1.5v23.7c0.2,0.7,0.5,1.3,0.8,1.8c0.4,0.5,0.7,0.9,1.1,1.4c0.4,0.4,1.4,0.7,3,0.8c1.6,0.1,4.1,0.2,7.5,0.2
			h10.1v-4.1h-0.8h-2.8h-2.6c-1.4,0-2.6-0.1-3.5-0.2c-1-0.1-1.6-0.4-1.8-0.7c-0.3-0.3-0.4-1.2-0.6-2.4c-0.1-1.3-0.2-2.7-0.2-4.2
			v-2.6h10.5v-4.3h-10.5v-4.1c0-1.4,0.1-2.6,0.2-3.5c0.2-0.9,0.5-1.6,0.9-1.9c0.4-0.3,0.9-0.5,1.4-0.6c0.5-0.1,1.2-0.1,2.1-0.1h7.1
			v-4.1H174.7z"/>
	</defs>
	<use xlink:href="#SVGID_109_"  style="overflow:visible;"/>
	<clipPath id="SVGID_17_">
		<use xlink:href="#SVGID_109_"  style="overflow:visible;"/>
	</clipPath>
	<rect x="158.9" y="17.1" class="st16" width="22.5" height="32.9"/>
</g>
<g>
	<defs>
		<path id="SVGID_108_" d="M224.8,24.8V9.2c1.2-0.4,2.4-0.6,3.4-0.6c2.4,0,4.5,0.7,6.3,2.1c1.8,1.4,2.7,3.3,2.7,5.7
			c0,2.8-0.8,5-2.4,6.6c-1.6,1.5-3.7,2.3-6.3,2.3C227.3,25.4,226.1,25.2,224.8,24.8z M217.4,2.6h-5.9v47.2h13.3v-19h6.1
			c3.6,0,6.6-0.3,9-0.8c3-0.7,5.4-2,7.2-3.8c1.3-1.4,2.3-2.8,2.8-4.3c0.6-1.5,0.9-3.1,0.9-4.7c0-2.5-0.7-4.8-2-6.9
			c-1.3-2.1-3.1-3.8-5.2-5.1c-1.8-1-4.2-1.7-7.2-2c-3-0.3-7.4-0.5-13.2-0.5H217.4z"/>
	</defs>
	<use xlink:href="#SVGID_108_"  style="overflow:visible;"/>
	<clipPath id="SVGID_18_">
		<use xlink:href="#SVGID_108_"  style="overflow:visible;"/>
	</clipPath>
	<rect x="211.5" y="2.6" class="st17" width="39.2" height="47.2"/>
</g>
<g>
	<defs>
		<path id="SVGID_107_" d="M264.1,25.7l4.3,14.7h-8.8L264.1,25.7z M263.2,18.2c-0.9,0.8-1.8,2.4-2.6,5l-8.5,26.7h4.4l1.7-5.4h10.6
			l1.8,5.4h10.6L272.8,23c-0.6-2-1.3-3.4-2.1-4.3c-1-1.2-2.4-1.7-4.1-1.7C265.2,17,264.1,17.4,263.2,18.2z"/>
	</defs>
	<use xlink:href="#SVGID_107_"  style="overflow:visible;"/>
	<clipPath id="SVGID_19_">
		<use xlink:href="#SVGID_107_"  style="overflow:visible;"/>
	</clipPath>
	<rect x="252.2" y="17" class="st18" width="29.1" height="32.9"/>
</g>
<g>
	<defs>
		<path id="SVGID_106_" d="M297.5,17.1c-1.9,0.1-3.9,0.3-6,0.5c-2.1,0.3-4,1.3-5.7,3.3c-1.8,1.9-2.6,4.1-2.6,6.6
			c0,1,0.1,1.9,0.4,2.6c0.8,2.7,5,5.1,12.5,7.3c3.2,0.9,4.8,2.3,4.8,4.1v0.7c0,0.2,0,0.4-0.1,0.7c-0.3,1.2-1.2,2.1-2.8,2.5
			c-1.5,0.5-3.5,0.7-5.9,0.7c-1,0-2.1,0-3.4-0.1c-1.3-0.1-2.4-0.2-3.4-0.3v4.3c0.6,0,1.4,0.1,2.5,0.3h2.3c0.5,0,2.5-0.1,6-0.3
			c0.7,0,1.7-0.1,2.9-0.1c3.3,0,6.2-1.1,8.7-3.3c2.5-2.2,3.8-4.8,3.8-7.9c0-0.6,0-1-0.1-1.3c-0.5-4-3.3-6.7-8.5-8
			c-5.2-1.3-8-2.7-8.4-4.1c-0.1-0.5-0.1-0.8-0.1-0.9c0-1.3,0.8-2.1,2.5-2.6c1.7-0.5,3.7-0.7,6-0.7c0.5,0,1.2,0,2.2,0.1
			c1,0,1.8,0.1,2.3,0.1v-4.1c-1-0.1-2.6-0.2-4.8-0.2C301.2,17,299.5,17,297.5,17.1z"/>
	</defs>
	<use xlink:href="#SVGID_106_"  style="overflow:visible;"/>
	<clipPath id="SVGID_20_">
		<use xlink:href="#SVGID_106_"  style="overflow:visible;"/>
	</clipPath>
	<rect x="283.2" y="17" class="st19" width="28.3" height="33.2"/>
</g>
<g>
	<defs>
		<path id="SVGID_105_" d="M328.3,17.1c-1.9,0.1-3.9,0.3-6,0.5c-2.1,0.3-4,1.3-5.7,3.3c-1.8,1.9-2.6,4.1-2.6,6.6
			c0,1,0.1,1.9,0.4,2.6c0.8,2.7,5,5.1,12.5,7.3c3.2,0.9,4.8,2.3,4.8,4.1v0.7c0,0.2,0,0.4-0.1,0.7c-0.3,1.2-1.2,2.1-2.8,2.5
			c-1.5,0.5-3.5,0.7-5.9,0.7c-1,0-2.1,0-3.4-0.1c-1.3-0.1-2.4-0.2-3.4-0.3v4.3c0.6,0,1.4,0.1,2.5,0.3h2.3c0.5,0,2.5-0.1,6-0.3
			c0.7,0,1.7-0.1,2.9-0.1c3.3,0,6.2-1.1,8.7-3.3c2.5-2.2,3.8-4.8,3.8-7.9c0-0.6,0-1-0.1-1.3c-0.5-4-3.3-6.7-8.5-8
			c-5.2-1.3-8-2.7-8.4-4.1c-0.1-0.5-0.1-0.8-0.1-0.9c0-1.3,0.8-2.1,2.5-2.6c1.7-0.5,3.7-0.7,6-0.7c0.5,0,1.2,0,2.2,0.1
			c1,0,1.8,0.1,2.3,0.1v-4.1c-1-0.1-2.6-0.2-4.8-0.2C332,17,330.2,17,328.3,17.1z"/>
	</defs>
	<use xlink:href="#SVGID_105_"  style="overflow:visible;"/>
	<clipPath id="SVGID_21_">
		<use xlink:href="#SVGID_105_"  style="overflow:visible;"/>
	</clipPath>
	<rect x="314" y="17" class="st20" width="28.3" height="33.2"/>
</g>
<g>
	<defs>
		<rect id="SVGID_104_" x="345.6" y="19.6" width="9.6" height="30.2"/>
	</defs>
	<use xlink:href="#SVGID_104_"  style="overflow:visible;"/>
	<clipPath id="SVGID_22_">
		<use xlink:href="#SVGID_104_"  style="overflow:visible;"/>
	</clipPath>
	<rect x="345.6" y="19.6" class="st21" width="9.6" height="30.2"/>
</g>
<g>
	<defs>
		<path id="SVGID_103_" d="M347.1,3.6c-1,0.9-1.5,2.1-1.5,3.4c0,1.4,0.6,2.5,1.7,3.3c1.2,0.8,2.5,1.2,4.1,1.2c1.2,0,2.2-0.6,3-1.7
			c0.8-1.1,1.2-2.4,1-3.7c-0.2-1.2-0.7-2.2-1.7-2.9c-0.9-0.7-2-1.1-3.2-1.1C349.3,2.2,348.1,2.7,347.1,3.6z"/>
	</defs>
	<use xlink:href="#SVGID_103_"  style="overflow:visible;"/>
	<clipPath id="SVGID_23_">
		<use xlink:href="#SVGID_103_"  style="overflow:visible;"/>
	</clipPath>
	<rect x="345.6" y="2.2" class="st22" width="10.1" height="9.4"/>
</g>
<g>
	<defs>
		<path id="SVGID_102_" d="M371.8,41.7c-0.5-1.8-0.8-4.7-0.8-8.7c0-4.1,0.2-6.9,0.6-8.5c0.7-2.9,2.3-4.4,4.7-4.4
			c2.5,0,4.1,1.5,5,4.5c0.6,1.9,0.8,4.8,0.8,8.7c0,4.7-0.5,8.1-1.6,10.3c-0.9,1.8-2.1,2.7-3.7,2.7C374.4,46.3,372.7,44.8,371.8,41.7
			z M363.9,21.6c-3.1,3.3-4.7,7.4-4.7,12.3c0,4.6,1.8,8.4,5.5,11.5c3.5,2.9,7.6,4.4,12.5,4.4c4.6,0,8.4-1.8,11.5-5.5
			c2.9-3.4,4.4-7.6,4.4-12.4c0-4.2-1.7-7.8-5.1-10.8c-3.4-3-7.4-4.5-11.9-4.5C371.1,16.6,367,18.3,363.9,21.6z"/>
	</defs>
	<use xlink:href="#SVGID_102_"  style="overflow:visible;"/>
	<clipPath id="SVGID_24_">
		<use xlink:href="#SVGID_102_"  style="overflow:visible;"/>
	</clipPath>
	<rect x="359.2" y="16.6" class="st23" width="33.9" height="33.2"/>
</g>
<g>
	<defs>
		<path id="SVGID_101_" d="M398.7,18.7c-1,1.2-1.4,2.5-1.4,3.8v27.6h5V28.4c3.2,4.7,6.3,9.4,9.5,14.1c3.6,5.3,6.8,7.9,9.6,7.9
			c1.2,0,2.1-0.6,2.5-1.8c0.3-0.7,0.4-1.9,0.4-3.5V17.2h-5.3v16.7c-2.8-3.9-5.5-7.7-8.2-11.5c-2.7-3.7-5.6-5.6-8.6-5.6
			C400.9,16.8,399.7,17.4,398.7,18.7z"/>
	</defs>
	<use xlink:href="#SVGID_101_"  style="overflow:visible;"/>
	<clipPath id="SVGID_25_">
		<use xlink:href="#SVGID_101_"  style="overflow:visible;"/>
	</clipPath>
	<rect x="397.3" y="16.8" class="st24" width="27.1" height="33.6"/>
</g>
</svg>
